<svg width="90" height="90" viewBox="0 0 90 90" fill="none" xmlns="http://www.w3.org/2000/svg">
<path d="M68.0227 81.0733C64.7227 82.0483 60.8227 82.4984 56.2477 82.4984H33.7477C29.1727 82.4984 25.2727 82.0483 21.9727 81.0733C22.7977 71.3233 32.8102 63.6357 44.9977 63.6357C57.1852 63.6357 67.1977 71.3233 68.0227 81.0733Z" fill="white" stroke="white" stroke-width="5" stroke-linecap="round" stroke-linejoin="round"/>
<path d="M56.25 7.50098H33.75C15 7.50098 7.5 15.001 7.5 33.751V56.251C7.5 70.426 11.775 78.1885 21.975 81.076C22.8 71.326 32.8125 63.6384 45 63.6384C57.1875 63.6384 67.2 71.326 68.025 81.076C78.225 78.1885 82.5 70.426 82.5 56.251V33.751C82.5 15.001 75 7.50098 56.25 7.50098ZM45 53.1384C37.575 53.1384 31.575 47.101 31.575 39.676C31.575 32.251 37.575 26.251 45 26.251C52.425 26.251 58.425 32.251 58.425 39.676C58.425 47.101 52.425 53.1384 45 53.1384Z" stroke="white" stroke-width="5" stroke-linecap="round" stroke-linejoin="round"/>
<path d="M58.432 39.6741C58.432 47.0991 52.432 53.1365 45.007 53.1365C37.582 53.1365 31.582 47.0991 31.582 39.6741C31.582 32.2491 37.582 26.249 45.007 26.249C52.432 26.249 58.432 32.2491 58.432 39.6741Z" fill="white" stroke="white" stroke-width="5" stroke-linecap="round" stroke-linejoin="round"/>
</svg>
